<?xml version="1.0" encoding="utf-8"?>
<!-- Generator: Adobe Adobe Illustrator 24.2.0, SVG Export Plug-In . SVG Version: 6.00 Build 0)  -->
<svg version="1.1" id="Layer_1" xmlns="http://www.w3.org/2000/svg" xmlns:xlink="http://www.w3.org/1999/xlink" x="0px" y="0px"
	 width="300px" height="300px" viewBox="0 0 300 300" style="enable-background:new 0 0 300 300;" xml:space="preserve">
<style type="text/css">
	.st0{fill:#FFFFFF;stroke:#000000;stroke-miterlimit:10;}
</style>
<path class="st0" d="M17.2,43.11c2.28,13.52,5.37,26.91,9.26,40.06c-4.66-9.03-5.14-20.11-1.28-29.51s12-16.94,21.66-20.09
	c2.67-0.87,5.69-1.39,8.22-0.17"/>
<path class="st0" d="M63.44,54.82c4.43-1,8.96-2.04,12.78-4.48s6.87-6.62,6.7-11.15c-4.98-2.58-10.98,1.17-14.4,5.61
	c-3.04,3.96-5.17,8.61-6.18,13.5c-0.74,3.6-0.82,7.59,1.16,10.68c2.47,3.85,7.57,5.3,12.1,4.69c4.53-0.6,8.64-2.88,12.63-5.11"/>
<path class="st0" d="M110.78,26.11c-2.99,14.96-4.48,30.21-4.44,45.46c0.9,0.14,1.85-0.62,1.89-1.54"/>
<path class="st0" d="M97.79,54.6c9.19-3.07,18.37-6.14,27.56-9.2"/>
<path class="st0" d="M141.42,42.1c-2.09,7.12-3.64,14.4-4.64,21.76c-0.43,3.13-0.33,7.11,2.52,8.48
	c7.1-6.19,10.74-15.35,14.14-24.14c1.16,6.69,2.48,13.35,3.96,19.97"/>
<path class="st0" d="M172.33,30.18c-0.15,14.23,0.17,28.46,0.97,42.66c-0.28-8.06,0.41-16.44,4.28-23.52s11.58-12.53,19.6-11.71"/>
<path class="st0" d="M213.53,40.39c-0.69,11.24-0.91,22.5-0.66,33.76c1.19-10.15,2.46-20.6,7.45-29.53
	c1.44-2.58,3.62-5.25,6.57-5.32c3-0.07,5.31,2.57,6.87,5.13c2.75,4.53,4.63,9.58,5.49,14.81c0.68,4.13,0.82,8.59,3.28,11.98"/>
<path class="st0" d="M58.43,120.92c48.62,49.17,113.91,77.73,169.53,118.82"/>
<path class="st0" d="M222.27,117.26c-56.92,41.86-114.05,83.44-171.39,124.72"/>
</svg>
