<?xml version="1.0" encoding="utf-8"?>
<!-- Generator: Adobe Adobe Illustrator 24.2.0, SVG Export Plug-In . SVG Version: 6.00 Build 0)  -->
<svg version="1.1" id="Layer_1" xmlns="http://www.w3.org/2000/svg" xmlns:xlink="http://www.w3.org/1999/xlink" x="0px" y="0px"
	 width="300px" height="300px" viewBox="0 0 300 300" style="enable-background:new 0 0 300 300;" xml:space="preserve">
<style type="text/css">
	.st0{fill:#FFFFFF;stroke:#000000;stroke-miterlimit:10;}
</style>
<path class="st0" d="M49.22,23.98c-2.71-1.68-4.97-4-7.59-5.83c-2.62-1.82-5.84-3.17-8.96-2.5c-2.95,0.64-5.24,2.94-7.1,5.32
	c-2.21,2.83-4.16,6.27-3.61,9.81c0.91,5.83,7.61,8.45,13.16,10.43c7.92,2.84,16.26,7.38,18.87,15.38c2.16,6.6-0.51,14.32-5.92,18.68
	c-5.41,4.36-13.13,5.4-19.73,3.25c-0.6-0.19-1.25-0.47-1.48-1.06c-0.23-0.59,0.41-1.4,0.95-1.07"/>
<path class="st0" d="M75.19,55.83c2.55-0.05,5.14-0.11,7.56-0.9c2.42-0.79,4.7-2.42,5.64-4.79s0.16-5.47-2.1-6.65
	c-1.85-0.96-4.21-0.45-5.87,0.82c-1.66,1.26-2.73,3.15-3.56,5.06c-2.54,5.84-3.26,12.45-2.03,18.7c0.57,2.88,1.66,5.86,4.01,7.62
	c2.65,1.99,6.38,1.99,9.48,0.83c3.1-1.15,5.72-3.29,8.27-5.4"/>
<path class="st0" d="M108.29,55.57c6.06-2.35,11.43-6.43,15.31-11.64c-0.8-2.31-2.4-5.12-4.81-4.66c-1.17,0.22-2.02,1.21-2.72,2.17
	c-3.54,4.82-5.71,10.63-6.22,16.59c-0.49,5.76,1.28,12.57,6.63,14.74c3.01,1.23,6.52,0.64,9.43-0.81c2.91-1.45,5.34-3.69,7.73-5.91"
	/>
<path class="st0" d="M165.7,43.79c-2.17,8.72-2.06,18,0.33,26.66c2.14-7.46,3.77-15.06,4.89-22.74c0.21-1.46,0.78-3.28,2.24-3.39
	c1.01,5.92,2.03,11.84,3.04,17.77c0.21,1.22,0.88,2.79,2.1,2.58c1.68-5.49,3.56-10.92,5.64-16.28c0.94-2.42,2.44-5.22,5.03-5.36
	c4.69,8,7.5,17.08,8.17,26.33"/>
<path class="st0" d="M209.35,45.01c0.58,5.49,1.95,10.9,4.06,16.01c0.95,2.31,2.13,4.65,4.13,6.14s5.04,1.88,6.93,0.25"/>
<path class="st0" d="M229.74,38.7c-0.73,15.34-2.23,30.64-4.47,45.83c-1.12,7.54-2.39,15.4,0,22.64"/>
<path class="st0" d="M17.64,133.62c1.15,9.65,2.3,19.3,3.45,28.95c-2.36-8.89-0.58-19.29,6.2-25.51c3.2-2.94,8.38-4.72,11.8-2.04"/>
<path class="st0" d="M50.4,143.7c2.94,1.83,6.99,1.73,9.79-0.3s4.14-5.91,3.13-9.22c-0.32-1.05-0.89-2.07-1.83-2.64
	c-0.78-0.47-1.73-0.57-2.63-0.49c-4.97,0.4-8.27,5.4-9.69,10.18c-1.35,4.54-1.73,9.38-1.09,14.07c0.22,1.65,0.59,3.33,1.55,4.7
	c1.88,2.69,5.66,3.47,8.85,2.73c3.2-0.74,5.95-2.69,8.62-4.6"/>
<path class="st0" d="M88.81,129.63c-2.76-0.02-5.66-0.02-8.09,1.3s-4.13,4.41-2.95,6.91c1.42,3,5.53,3.15,8.6,4.41
	c4.13,1.7,6.88,6.29,6.41,10.74c-0.21,2.02-1.07,4.02-2.62,5.32c-3.62,3.01-9.05,1.19-13.29-0.86c-0.35-0.17-0.75-0.39-0.83-0.78
	c-0.08-0.38,0.48-0.78,0.7-0.46"/>
<path class="st0" d="M103.66,130.01c-0.28,5.45-0.05,10.93,0.68,16.35c0.33,2.47,0.8,5,2.18,7.08c1.38,2.07,3.89,3.59,6.33,3.09
	c3.05-0.62,4.7-3.88,5.73-6.82c2.33-6.65,3.74-13.62,4.16-20.66c6.29,6.57,2.93,17.96,7.55,25.8"/>
<path class="st0" d="M140.23,130.32c0.63,7.95,1.56,15.88,2.78,23.77c1.38-8.2,2.76-16.4,4.15-24.6c0.19-1.11,1.1-2.58,2.04-1.96
	c1,5.42,2.01,10.84,3.01,16.26c1.76-4.96,3.53-9.91,5.29-14.87c0.62-1.75,1.91-3.88,3.71-3.42c2.64,8.47,5.28,16.94,7.93,25.41"/>
<path class="st0" d="M180.81,137.25c1.75-1.83,4.11-2.92,6.25-4.26s4.22-3.17,4.78-5.64c0.56-2.47-1.15-5.51-3.68-5.46
	c-2.55,0.05-4.04,2.86-4.74,5.32c-1.2,4.21-1.7,8.61-1.48,12.98c0.2,3.99,1.23,8.32,4.43,10.71c3.78,2.83,9.25,1.89,13.35-0.45"/>
<path class="st0" d="M212.06,133.14c14.49-5.93,29.8-9.84,45.36-11.59c2.07-0.23,4.31-0.39,6.1,0.67c3.24,1.93,3.22,6.64,2.19,10.26
	c-2.38,8.36-7.84,15.47-13.52,22.06c-25.65,29.76-53.72,48.66-74.14,82.23"/>
<path class="st0" d="M145.14,215.5c3.33,22.15,2.29,44.95-3.03,66.71c-1.6-1.43,0.26-3.95,2.03-5.16
	c17.88-12.28,39.31-19.32,60.99-20.03c-0.37,1.1-2.03,0.43-2.85-0.39c-15.45-15.28-33.87-27.54-53.93-35.91
	c-1.47-0.61-3.26-2.06-2.4-3.4"/>
</svg>
